# xmcd
#
# Track frame offsets: 
#        150
#        10447
#        20519
#        30786
#        43717
#        53498
#        62655
#        76759
#        85368
#        97282
#        107224
#        118586
#        127936
#        138631
#        150577
#        163423
#        176567
#        186463
#        199525
#
# Disc length: 2809 seconds
#
# Revision: 0
# Processed by: cddbd v1.5.2PL0 Copyright (c) Steve Scherf et al.
# Submitted via: ExactAudioCopy v0.99pb4
#
DISCID=fc0af713
DTITLE=Mickey Gilley - Stand By Me Disc 3
DYEAR=2011
DGENRE=Country
TTITLE0=Forgive
TTITLE1=My Babe
TTITLE2=I'm to Blame
TTITLE3=Turn Around, Look at Me
TTITLE4=Night After Night
TTITLE5=Suzie Q
TTITLE6=I'll Make It All Up to You
TTITLE7=Is It Wrong
TTITLE8=Breathless
TTITLE9=Lonely Wine
TTITLE10=World of Our Own
TTITLE11=I'm Gonna Put My Love in the Want Ads
TTITLE12=There's No One Like You
TTITLE13=You Can Count Me Missing
TTITLE14=Watching the Way
TTITLE15=She's Still Got a Hold On You
TTITLE16=Running Out of Reasons
TTITLE17=That Heart Belongs to Me Without You
TTITLE18=That's One Thing I'll Do
EXTD=
EXTT0=
EXTT1=
EXTT2=
EXTT3=
EXTT4=
EXTT5=
EXTT6=
EXTT7=
EXTT8=
EXTT9=
EXTT10=
EXTT11=
EXTT12=
EXTT13=
EXTT14=
EXTT15=
EXTT16=
EXTT17=
EXTT18=
PLAYORDER=
